<?xml version="1.0" standalone="no"?>
<!DOCTYPE svg PUBLIC "-//W3C//DTD SVG 20010904//EN"
 "http://www.w3.org/TR/2001/REC-SVG-20010904/DTD/svg10.dtd">
<svg version="1.0" xmlns="http://www.w3.org/2000/svg"
 width="1024.000000pt" height="1024.000000pt" viewBox="0 0 1024.000000 1024.000000"
 preserveAspectRatio="xMidYMid meet">
<metadata>
Created by potrace 1.14, written by Peter Selinger 2001-2017
</metadata>
<g transform="translate(0.000000,1024.000000) scale(0.100000,-0.100000)"
fill="#000000" stroke="none">
<path d="M4803 7626 c-86 -22 -163 -66 -227 -130 -146 -146 -192 -353 -121
-542 31 -82 67 -134 144 -208 l62 -58 -54 -67 c-122 -151 -203 -277 -293 -455
-31 -61 -57 -112 -58 -113 -1 -1 -50 -12 -109 -23 -378 -73 -765 -260 -1032
-497 -246 -219 -441 -512 -533 -803 -123 -387 -98 -807 68 -1141 78 -158 145
-253 263 -375 l68 -72 -135 -4 c-126 -3 -137 -5 -160 -28 -36 -33 -36 -97 0
-131 l26 -24 2041 -3 c1123 -1 2057 0 2076 3 66 12 97 69 69 130 -24 53 -39
55 -398 55 -181 0 -330 2 -330 5 0 3 16 60 34 128 62 217 121 514 150 747 15
119 36 394 36 464 l0 33 98 -20 c134 -28 391 -29 512 -3 226 49 412 148 571
306 160 158 255 335 295 547 24 129 15 357 -18 473 -39 132 -84 232 -155 337
-184 276 -370 412 -1146 838 l-57 32 -3 129 c-2 122 -4 133 -34 197 -39 82
-106 150 -189 192 -54 28 -67 30 -164 30 -95 0 -111 -3 -167 -29 -103 -47
-199 -167 -219 -273 l-6 -33 -87 0 c-47 0 -110 -3 -139 -7 -50 -6 -53 -5 -59
18 -4 13 -24 58 -44 100 -61 120 -163 212 -288 260 -70 27 -213 34 -288 15z
m243 -207 c94 -45 167 -144 199 -270 30 -118 42 -124 224 -108 259 23 491 -12
756 -114 167 -65 656 -333 888 -488 277 -186 450 -393 525 -629 33 -105 36
-124 17 -117 -22 9 -62 -8 -120 -51 l-50 -38 -132 4 -132 4 -45 39 c-35 31
-52 39 -83 39 -52 0 -84 -33 -90 -92 -6 -58 20 -104 83 -147 46 -31 53 -33
118 -28 l68 4 -3 -118 c-4 -133 -15 -159 -83 -193 -36 -18 -40 -18 -72 -2 -51
24 -82 21 -96 -10 -26 -56 44 -114 138 -114 63 0 140 37 174 85 29 40 36 42
45 16 3 -11 26 -38 51 -61 25 -23 43 -48 40 -55 -8 -22 -149 -138 -217 -178
-150 -88 -310 -130 -499 -130 -140 0 -206 10 -364 54 -93 26 -112 29 -137 18
-17 -6 -34 -19 -38 -28 -5 -9 -14 -99 -20 -201 -28 -475 -104 -935 -214 -1296
l-22 -74 -197 0 -198 0 -2 208 c-3 367 -4 377 -23 410 -18 30 -52 52 -81 52
-30 0 -81 -31 -93 -56 -7 -17 -11 -121 -11 -319 l0 -295 -268 0 -268 0 -37
148 c-117 468 -168 644 -193 669 -42 42 -106 42 -149 -1 l-23 -23 -27 71 c-89
227 -286 421 -495 487 -75 24 -306 46 -364 35 -82 -16 -115 -101 -62 -163 23
-27 26 -28 172 -34 128 -6 158 -10 212 -32 162 -66 298 -219 354 -398 33 -107
33 -318 0 -434 -25 -85 -81 -213 -125 -282 l-27 -43 -385 0 -384 0 -63 52
c-645 531 -688 1413 -101 2060 294 324 657 515 1148 603 50 9 100 23 112 31
12 7 43 57 70 111 123 246 269 470 404 620 56 61 64 82 49 129 -10 28 -28 46
-93 88 -84 54 -117 88 -158 166 -20 38 -24 59 -24 135 0 78 4 97 27 141 37 70
114 137 180 157 67 21 151 15 214 -14z m1119 -48 c76 -34 125 -114 125 -201 0
-52 -6 -58 -41 -39 -32 17 -177 59 -258 75 -41 8 -77 16 -79 19 -10 10 43 97
72 119 59 45 121 55 181 27z m1505 -1973 c-15 -91 -50 -194 -84 -253 -15 -25
-29 -45 -31 -45 -11 0 -48 38 -67 68 -17 27 -22 56 -26 146 l-5 112 66 -4 c55
-4 72 0 106 19 23 12 41 27 41 33 0 5 3 7 6 3 3 -3 1 -39 -6 -79z m-3166
-1893 c31 -115 65 -241 76 -280 11 -38 20 -73 20 -77 0 -5 -69 -8 -154 -8
l-155 0 34 73 c72 156 115 322 115 445 0 36 2 63 4 61 2 -2 29 -98 60 -214z"/>
<path d="M5535 6481 c-79 -20 -131 -69 -160 -150 -37 -105 4 -218 98 -272 57
-33 163 -33 224 -1 84 44 133 141 119 236 -9 58 -58 131 -110 161 -45 26 -124
38 -171 26z"/>
<path d="M7198 3133 c-88 -15 -88 -163 0 -179 98 -19 172 19 172 87 0 58 -34
91 -96 94 -27 2 -61 1 -76 -2z"/>
</g>
</svg>
